<svg xmlns="http://www.w3.org/2000/svg" x="0px" y="0px" width="128" height="128" viewBox="0 0 172 172" style=" fill:#000000;">
	<g fill="none" fill-rule="nonzero" stroke="none" stroke-width="1" stroke-linecap="butt" stroke-linejoin="miter" stroke-miterlimit="10" stroke-dasharray="" stroke-dashoffset="0" font-family="none" font-weight="none" font-size="none" text-anchor="none" style="mix-blend-mode: normal">
		<path d="M0,172v-172h172v172z" fill="none"></path>
		<g>
			<path d="M98.98237,30.69425l4.13456,-1.18127l21.49916,75.24901l-4.13456,1.18127z" fill="#e74c3c"></path>
			<path d="M83.85,30.1h4.3v70.95h-4.3z" fill="#e74c3c"></path>
			<path d="M47.3931,104.76384l21.48208,-75.25389l4.13483,1.18033l-21.48208,75.25389z" fill="#e74c3c"></path>
			<path d="M57.62,132.225c-0.86,-0.215 -21.715,-6.45 -22.145,-40.85h101.05c-0.43,34.615 -21.93,40.85 -22.145,40.85l-28.38,8.6z" fill="#e74c3c"></path>
			<path d="M135.45,92.45c-0.86,32.68 -20.425,38.485 -21.285,38.7l-28.165,8.6l-28.165,-8.6c-0.86,-0.215 -20.425,-6.02 -21.285,-38.7h98.9M137.6,90.3h-103.2c0,36.765 23.005,43 23.005,43l28.595,8.6l28.595,-8.6c0,0 23.005,-6.235 23.005,-43z" fill="#e74c3c"></path>
			<path d="M4.3,167.7h163.4v-43.43c-5.59,-1.075 -12.255,-3.87 -17.2,-3.87c-6.235,0 -15.265,4.3 -21.5,4.3c-6.235,0 -15.265,-4.3 -21.5,-4.3c-6.235,0 -15.265,4.3 -21.5,4.3c-6.235,0 -15.265,-4.3 -21.5,-4.3c-6.235,0 -15.265,4.3 -21.5,4.3c-6.235,0 -15.265,-4.3 -21.5,-4.3c-4.945,0 -11.61,2.58 -17.2,3.87z" fill="#3498db"></path>
			<path d="M150.5,120.4c-6.235,0 -15.265,4.3 -21.5,4.3c-6.235,0 -15.265,-4.3 -21.5,-4.3c-6.235,0 -15.265,4.3 -21.5,4.3c-6.235,0 -15.265,-4.3 -21.5,-4.3c-6.235,0 -15.265,4.3 -21.5,4.3c-6.235,0 -15.265,-4.3 -21.5,-4.3c-4.945,0 -11.61,2.58 -17.2,3.87v2.15c5.59,-1.075 12.255,-3.87 17.2,-3.87c6.235,0 15.265,4.3 21.5,4.3c6.235,0 15.265,-4.3 21.5,-4.3c6.235,0 15.265,4.3 21.5,4.3c6.235,0 15.265,-4.3 21.5,-4.3c6.235,0 15.265,4.3 21.5,4.3c6.235,0 15.265,-4.3 21.5,-4.3c4.945,0 11.61,2.58 17.2,3.87v-2.15c-5.59,-1.29 -12.255,-3.87 -17.2,-3.87z" fill="#3498db"></path>
			<path d="M78.475,24.725v-11.825c0,-4.085 3.44,-7.525 7.525,-7.525c4.085,0 7.525,3.44 7.525,7.525v11.825z" fill="#f1c40f"></path>
			<path d="M86,6.45c3.655,0 6.45,2.795 6.45,6.45v10.75h-12.9v-10.75c0,-3.655 2.795,-6.45 6.45,-6.45M86,4.3c-4.73,0 -8.6,3.87 -8.6,8.6v12.9h17.2v-12.9c0,-4.73 -3.87,-8.6 -8.6,-8.6z" fill="#f1c40f"></path>
			<g fill="#e74c3c">
				<path d="M70.95,33.325c-3.01,0 -5.375,-2.365 -5.375,-5.375c0,-3.01 2.365,-5.375 5.375,-5.375h30.1c3.01,0 5.375,2.365 5.375,5.375c0,3.01 -2.365,5.375 -5.375,5.375z"></path>
				<path d="M101.05,23.65c2.365,0 4.3,1.935 4.3,4.3c0,2.365 -1.935,4.3 -4.3,4.3h-30.1c-2.365,0 -4.3,-1.935 -4.3,-4.3c0,-2.365 1.935,-4.3 4.3,-4.3h30.1M101.05,21.5h-30.1c-3.655,0 -6.45,2.795 -6.45,6.45c0,3.655 2.795,6.45 6.45,6.45h30.1c3.655,0 6.45,-2.795 6.45,-6.45c0,-3.655 -2.795,-6.45 -6.45,-6.45z"></path>
			</g>
		</g>
	</g>
</svg>
